<mxfile host="app.diagrams.net" modified="2023-11-27T05:01:54.862Z" agent="Mozilla/5.0 (Windows NT 10.0; Win64; x64) AppleWebKit/537.36 (KHTML, like Gecko) Chrome/119.0.0.0 Safari/537.36" etag="2p5fP7snik19XldHVuBJ" version="22.1.4" type="onedrive">
  <diagram id="C5RBs43oDa-KdzZeNtuy" name="Page-1">
    <mxGraphModel grid="1" page="1" gridSize="10" guides="1" tooltips="1" connect="1" arrows="1" fold="1" pageScale="1" pageWidth="827" pageHeight="1169" math="0" shadow="0">
      <root>
        <mxCell id="WIyWlLk6GJQsqaUBKTNV-0" />
        <mxCell id="WIyWlLk6GJQsqaUBKTNV-1" parent="WIyWlLk6GJQsqaUBKTNV-0" />
        <mxCell id="EvzbD7li760-sztUtzPp-3" style="edgeStyle=orthogonalEdgeStyle;rounded=0;orthogonalLoop=1;jettySize=auto;html=1;exitX=0.5;exitY=1;exitDx=0;exitDy=0;" edge="1" parent="WIyWlLk6GJQsqaUBKTNV-1">
          <mxGeometry relative="1" as="geometry">
            <mxPoint x="220" y="220" as="sourcePoint" />
            <mxPoint x="220" y="220" as="targetPoint" />
          </mxGeometry>
        </mxCell>
        <mxCell id="TeKCX0aCPJAGcK2ra2V3-2" value="" style="edgeStyle=orthogonalEdgeStyle;rounded=0;orthogonalLoop=1;jettySize=auto;html=1;" edge="1" parent="WIyWlLk6GJQsqaUBKTNV-1" source="TeKCX0aCPJAGcK2ra2V3-0" target="TeKCX0aCPJAGcK2ra2V3-1">
          <mxGeometry relative="1" as="geometry" />
        </mxCell>
        <mxCell id="TeKCX0aCPJAGcK2ra2V3-0" value="START" style="rounded=1;whiteSpace=wrap;html=1;" vertex="1" parent="WIyWlLk6GJQsqaUBKTNV-1">
          <mxGeometry x="354" y="40" width="120" height="60" as="geometry" />
        </mxCell>
        <mxCell id="TeKCX0aCPJAGcK2ra2V3-4" value="" style="edgeStyle=orthogonalEdgeStyle;rounded=0;orthogonalLoop=1;jettySize=auto;html=1;" edge="1" parent="WIyWlLk6GJQsqaUBKTNV-1" source="TeKCX0aCPJAGcK2ra2V3-1" target="TeKCX0aCPJAGcK2ra2V3-3">
          <mxGeometry relative="1" as="geometry" />
        </mxCell>
        <mxCell id="TeKCX0aCPJAGcK2ra2V3-1" value="Generate a Random word" style="whiteSpace=wrap;html=1;rounded=1;" vertex="1" parent="WIyWlLk6GJQsqaUBKTNV-1">
          <mxGeometry x="354" y="140" width="120" height="60" as="geometry" />
        </mxCell>
        <mxCell id="TeKCX0aCPJAGcK2ra2V3-6" value="" style="edgeStyle=orthogonalEdgeStyle;rounded=0;orthogonalLoop=1;jettySize=auto;html=1;" edge="1" parent="WIyWlLk6GJQsqaUBKTNV-1" source="TeKCX0aCPJAGcK2ra2V3-3" target="TeKCX0aCPJAGcK2ra2V3-5">
          <mxGeometry relative="1" as="geometry" />
        </mxCell>
        <mxCell id="TeKCX0aCPJAGcK2ra2V3-3" value="Generate as many blanks as letters in word" style="whiteSpace=wrap;html=1;rounded=1;" vertex="1" parent="WIyWlLk6GJQsqaUBKTNV-1">
          <mxGeometry x="354" y="240" width="120" height="60" as="geometry" />
        </mxCell>
        <mxCell id="TeKCX0aCPJAGcK2ra2V3-8" value="" style="edgeStyle=orthogonalEdgeStyle;rounded=0;orthogonalLoop=1;jettySize=auto;html=1;" edge="1" parent="WIyWlLk6GJQsqaUBKTNV-1" source="TeKCX0aCPJAGcK2ra2V3-5" target="TeKCX0aCPJAGcK2ra2V3-7">
          <mxGeometry relative="1" as="geometry" />
        </mxCell>
        <mxCell id="TeKCX0aCPJAGcK2ra2V3-32" style="edgeStyle=orthogonalEdgeStyle;rounded=0;orthogonalLoop=1;jettySize=auto;html=1;" edge="1" parent="WIyWlLk6GJQsqaUBKTNV-1" source="TeKCX0aCPJAGcK2ra2V3-5">
          <mxGeometry relative="1" as="geometry">
            <mxPoint x="120" y="380" as="targetPoint" />
          </mxGeometry>
        </mxCell>
        <mxCell id="TeKCX0aCPJAGcK2ra2V3-33" style="edgeStyle=orthogonalEdgeStyle;rounded=0;orthogonalLoop=1;jettySize=auto;html=1;" edge="1" parent="WIyWlLk6GJQsqaUBKTNV-1" source="TeKCX0aCPJAGcK2ra2V3-5">
          <mxGeometry relative="1" as="geometry">
            <mxPoint x="720" y="380" as="targetPoint" />
          </mxGeometry>
        </mxCell>
        <mxCell id="TeKCX0aCPJAGcK2ra2V3-5" value="Ask the user to guess a letter" style="whiteSpace=wrap;html=1;rounded=1;" vertex="1" parent="WIyWlLk6GJQsqaUBKTNV-1">
          <mxGeometry x="354" y="350" width="120" height="60" as="geometry" />
        </mxCell>
        <mxCell id="TeKCX0aCPJAGcK2ra2V3-7" value="Is the guessed&amp;nbsp;&lt;br&gt;letter in&amp;nbsp;&lt;br&gt;the word?" style="rhombus;whiteSpace=wrap;html=1;rounded=1;" vertex="1" parent="WIyWlLk6GJQsqaUBKTNV-1">
          <mxGeometry x="351" y="450" width="126" height="120" as="geometry" />
        </mxCell>
        <mxCell id="TeKCX0aCPJAGcK2ra2V3-12" value="" style="edgeStyle=orthogonalEdgeStyle;rounded=0;orthogonalLoop=1;jettySize=auto;html=1;" edge="1" parent="WIyWlLk6GJQsqaUBKTNV-1" target="TeKCX0aCPJAGcK2ra2V3-16">
          <mxGeometry relative="1" as="geometry">
            <mxPoint x="254" y="510" as="sourcePoint" />
            <mxPoint x="254" y="610" as="targetPoint" />
          </mxGeometry>
        </mxCell>
        <mxCell id="TeKCX0aCPJAGcK2ra2V3-13" value="Yes" style="endArrow=none;html=1;rounded=0;" edge="1" parent="WIyWlLk6GJQsqaUBKTNV-1">
          <mxGeometry width="50" height="50" relative="1" as="geometry">
            <mxPoint x="254" y="510" as="sourcePoint" />
            <mxPoint x="355" y="510" as="targetPoint" />
          </mxGeometry>
        </mxCell>
        <mxCell id="TeKCX0aCPJAGcK2ra2V3-14" value="No" style="endArrow=none;html=1;rounded=0;" edge="1" parent="WIyWlLk6GJQsqaUBKTNV-1">
          <mxGeometry width="50" height="50" relative="1" as="geometry">
            <mxPoint x="474" y="509.6" as="sourcePoint" />
            <mxPoint x="575" y="509.6" as="targetPoint" />
          </mxGeometry>
        </mxCell>
        <mxCell id="TeKCX0aCPJAGcK2ra2V3-15" value="" style="edgeStyle=orthogonalEdgeStyle;rounded=0;orthogonalLoop=1;jettySize=auto;html=1;" edge="1" parent="WIyWlLk6GJQsqaUBKTNV-1" target="TeKCX0aCPJAGcK2ra2V3-17">
          <mxGeometry relative="1" as="geometry">
            <mxPoint x="575" y="510" as="sourcePoint" />
            <mxPoint x="575" y="610" as="targetPoint" />
            <Array as="points">
              <mxPoint x="575" y="560" />
              <mxPoint x="575" y="560" />
            </Array>
          </mxGeometry>
        </mxCell>
        <mxCell id="TeKCX0aCPJAGcK2ra2V3-18" style="edgeStyle=orthogonalEdgeStyle;rounded=0;orthogonalLoop=1;jettySize=auto;html=1;" edge="1" parent="WIyWlLk6GJQsqaUBKTNV-1" source="TeKCX0aCPJAGcK2ra2V3-16">
          <mxGeometry relative="1" as="geometry">
            <mxPoint x="254" y="670" as="targetPoint" />
          </mxGeometry>
        </mxCell>
        <mxCell id="TeKCX0aCPJAGcK2ra2V3-16" value="Replace the blank with the letter" style="rounded=1;whiteSpace=wrap;html=1;" vertex="1" parent="WIyWlLk6GJQsqaUBKTNV-1">
          <mxGeometry x="194" y="580" width="120" height="60" as="geometry" />
        </mxCell>
        <mxCell id="TeKCX0aCPJAGcK2ra2V3-19" style="edgeStyle=orthogonalEdgeStyle;rounded=0;orthogonalLoop=1;jettySize=auto;html=1;" edge="1" parent="WIyWlLk6GJQsqaUBKTNV-1" source="TeKCX0aCPJAGcK2ra2V3-17">
          <mxGeometry relative="1" as="geometry">
            <mxPoint x="575" y="670" as="targetPoint" />
          </mxGeometry>
        </mxCell>
        <mxCell id="TeKCX0aCPJAGcK2ra2V3-17" value="Lose a life" style="rounded=1;whiteSpace=wrap;html=1;" vertex="1" parent="WIyWlLk6GJQsqaUBKTNV-1">
          <mxGeometry x="515" y="580" width="120" height="60" as="geometry" />
        </mxCell>
        <mxCell id="TeKCX0aCPJAGcK2ra2V3-24" style="edgeStyle=orthogonalEdgeStyle;rounded=0;orthogonalLoop=1;jettySize=auto;html=1;" edge="1" parent="WIyWlLk6GJQsqaUBKTNV-1" source="TeKCX0aCPJAGcK2ra2V3-20">
          <mxGeometry relative="1" as="geometry">
            <mxPoint x="120" y="380" as="targetPoint" />
          </mxGeometry>
        </mxCell>
        <mxCell id="TeKCX0aCPJAGcK2ra2V3-20" value="Are all the&lt;br&gt;blanks&lt;br&gt;filled?" style="rhombus;whiteSpace=wrap;html=1;" vertex="1" parent="WIyWlLk6GJQsqaUBKTNV-1">
          <mxGeometry x="206" y="670" width="96" height="90" as="geometry" />
        </mxCell>
        <mxCell id="TeKCX0aCPJAGcK2ra2V3-27" style="edgeStyle=orthogonalEdgeStyle;rounded=0;orthogonalLoop=1;jettySize=auto;html=1;" edge="1" parent="WIyWlLk6GJQsqaUBKTNV-1" source="TeKCX0aCPJAGcK2ra2V3-22">
          <mxGeometry relative="1" as="geometry">
            <mxPoint x="720.0588235294117" y="380" as="targetPoint" />
          </mxGeometry>
        </mxCell>
        <mxCell id="TeKCX0aCPJAGcK2ra2V3-22" value="Have they&amp;nbsp;&lt;br&gt;run out of&lt;br&gt;lives?" style="rhombus;whiteSpace=wrap;html=1;" vertex="1" parent="WIyWlLk6GJQsqaUBKTNV-1">
          <mxGeometry x="527" y="670" width="96" height="90" as="geometry" />
        </mxCell>
        <mxCell id="TeKCX0aCPJAGcK2ra2V3-35" value="No" style="text;html=1;align=center;verticalAlign=middle;resizable=0;points=[];autosize=1;strokeColor=none;fillColor=none;" vertex="1" parent="WIyWlLk6GJQsqaUBKTNV-1">
          <mxGeometry x="657" y="718" width="40" height="30" as="geometry" />
        </mxCell>
        <mxCell id="TeKCX0aCPJAGcK2ra2V3-36" value="No" style="text;html=1;align=center;verticalAlign=middle;resizable=0;points=[];autosize=1;strokeColor=none;fillColor=none;" vertex="1" parent="WIyWlLk6GJQsqaUBKTNV-1">
          <mxGeometry x="137" y="718" width="40" height="30" as="geometry" />
        </mxCell>
        <mxCell id="TeKCX0aCPJAGcK2ra2V3-38" value="" style="endArrow=none;html=1;rounded=0;" edge="1" parent="WIyWlLk6GJQsqaUBKTNV-1">
          <mxGeometry width="50" height="50" relative="1" as="geometry">
            <mxPoint x="254" y="800" as="sourcePoint" />
            <mxPoint x="254" y="760" as="targetPoint" />
          </mxGeometry>
        </mxCell>
        <mxCell id="TeKCX0aCPJAGcK2ra2V3-39" value="" style="endArrow=none;html=1;rounded=0;" edge="1" parent="WIyWlLk6GJQsqaUBKTNV-1">
          <mxGeometry width="50" height="50" relative="1" as="geometry">
            <mxPoint x="575" y="800" as="sourcePoint" />
            <mxPoint x="575" y="760" as="targetPoint" />
          </mxGeometry>
        </mxCell>
        <mxCell id="TeKCX0aCPJAGcK2ra2V3-43" value="" style="endArrow=none;html=1;rounded=0;" edge="1" parent="WIyWlLk6GJQsqaUBKTNV-1">
          <mxGeometry width="50" height="50" relative="1" as="geometry">
            <mxPoint x="256" y="799" as="sourcePoint" />
            <mxPoint x="573" y="799" as="targetPoint" />
            <Array as="points">
              <mxPoint x="431" y="799" />
            </Array>
          </mxGeometry>
        </mxCell>
        <mxCell id="TeKCX0aCPJAGcK2ra2V3-44" value="" style="endArrow=classic;html=1;rounded=0;" edge="1" parent="WIyWlLk6GJQsqaUBKTNV-1">
          <mxGeometry width="50" height="50" relative="1" as="geometry">
            <mxPoint x="413" y="800" as="sourcePoint" />
            <mxPoint x="413" y="860" as="targetPoint" />
          </mxGeometry>
        </mxCell>
        <mxCell id="TeKCX0aCPJAGcK2ra2V3-45" value="Yes" style="text;html=1;strokeColor=none;fillColor=none;align=center;verticalAlign=middle;whiteSpace=wrap;rounded=0;" vertex="1" parent="WIyWlLk6GJQsqaUBKTNV-1">
          <mxGeometry x="515" y="770" width="60" height="30" as="geometry" />
        </mxCell>
        <mxCell id="TeKCX0aCPJAGcK2ra2V3-46" value="Yes" style="text;html=1;strokeColor=none;fillColor=none;align=center;verticalAlign=middle;whiteSpace=wrap;rounded=0;" vertex="1" parent="WIyWlLk6GJQsqaUBKTNV-1">
          <mxGeometry x="254" y="770" width="60" height="30" as="geometry" />
        </mxCell>
        <mxCell id="TeKCX0aCPJAGcK2ra2V3-47" value="GAME OVER" style="rounded=1;whiteSpace=wrap;html=1;" vertex="1" parent="WIyWlLk6GJQsqaUBKTNV-1">
          <mxGeometry x="354" y="860" width="120" height="60" as="geometry" />
        </mxCell>
      </root>
    </mxGraphModel>
  </diagram>
</mxfile>
